<?xml version="1.0" standalone="no"?>
<!DOCTYPE svg PUBLIC "-//W3C//DTD SVG 20010904//EN"
 "http://www.w3.org/TR/2001/REC-SVG-20010904/DTD/svg10.dtd">
<svg version="1.0" xmlns="http://www.w3.org/2000/svg"
 width="640.000000pt" height="640.000000pt" viewBox="0 0 640.000000 640.000000"
 preserveAspectRatio="xMidYMid meet">
<metadata>
Created by potrace 1.11, written by Peter Selinger 2001-2013
</metadata>
<g transform="translate(0.000000,640.000000) scale(0.100000,-0.100000)"
fill="#000000" stroke="none">
<path d="M2988 6145 c-1 -1 -39 -6 -83 -9 -128 -10 -248 -28 -352 -51 -13 -3
-31 -7 -41 -9 -9 -2 -35 -9 -57 -14 -22 -6 -60 -13 -85 -16 -66 -8 -155 -27
-242 -51 -10 -3 -27 -7 -38 -9 -10 -3 -34 -11 -52 -19 -18 -8 -62 -28 -97 -43
-35 -16 -66 -27 -69 -26 -3 2 -8 0 -11 -5 -3 -5 -33 -23 -66 -39 -33 -16 -62
-32 -65 -35 -3 -3 -18 -14 -35 -23 -16 -9 -43 -26 -60 -36 -16 -11 -38 -23
-47 -26 -10 -4 -18 -9 -18 -13 0 -3 -18 -17 -40 -31 -22 -14 -40 -28 -40 -32
0 -5 -5 -8 -11 -8 -6 0 -34 -19 -63 -42 -28 -24 -57 -47 -64 -53 -21 -17 -145
-140 -182 -181 -31 -34 -81 -96 -149 -184 -21 -28 -67 -84 -93 -115 -45 -54
-54 -65 -73 -91 -11 -15 -26 -33 -32 -40 -7 -7 -13 -16 -13 -21 0 -4 -11 -20
-25 -35 -14 -15 -25 -32 -25 -38 0 -5 -4 -10 -10 -10 -5 0 -10 -7 -10 -15 0
-8 -3 -15 -8 -15 -4 0 -18 -20 -31 -45 -22 -42 -23 -46 -7 -70 9 -14 21 -25
25 -25 5 0 -9 -42 -31 -92 -22 -51 -53 -131 -70 -178 -68 -194 -106 -310 -101
-310 3 0 1 -6 -4 -12 -9 -12 -18 -43 -68 -233 -18 -71 -71 -305 -80 -355 -3
-19 -10 -54 -16 -78 -5 -23 -12 -59 -14 -80 -3 -20 -9 -50 -12 -67 -3 -16 -7
-39 -9 -50 -1 -11 -5 -33 -8 -50 -4 -26 -17 -108 -31 -195 -2 -14 -9 -68 -15
-120 -6 -52 -13 -106 -16 -120 -2 -14 -7 -54 -10 -90 -3 -36 -7 -83 -10 -105
-20 -201 -26 -282 -38 -510 l-4 -70 19 40 c33 70 76 167 124 280 26 61 50 112
52 115 5 4 -1 -42 -13 -105 -2 -11 -6 -45 -9 -75 -4 -30 -8 -62 -10 -70 -16
-61 -39 -513 -39 -775 0 -263 27 -881 38 -893 3 -3 130 189 213 323 54 87 164
284 168 300 4 18 65 145 70 145 2 0 2 -12 0 -27 -3 -16 -7 -50 -9 -78 l-4 -50
23 29 c13 16 55 86 94 155 39 69 71 123 71 120 0 -10 -69 -200 -85 -236 -8
-17 -15 -35 -15 -39 0 -4 -23 -70 -50 -145 -28 -75 -50 -140 -50 -143 0 -6 39
13 50 24 3 3 19 12 35 20 17 8 32 17 35 20 9 9 89 60 95 60 9 0 260 172 267
184 4 6 8 8 8 4 0 -5 10 1 23 11 12 11 33 29 46 40 16 14 38 21 65 21 74 0
143 54 169 132 11 32 15 34 30 23 17 -12 16 -17 -7 -81 l-25 -69 34 40 c19 22
34 43 35 48 0 15 40 6 52 -13 7 -11 18 -20 25 -20 7 0 13 -4 13 -10 0 -5 6
-10 14 -10 8 0 16 -6 19 -12 2 -7 7 -10 11 -6 4 3 0 18 -9 32 -26 39 -9 32 53
-25 73 -65 231 -164 364 -228 96 -47 308 -124 368 -134 14 -3 43 -10 65 -15
54 -15 86 -21 182 -34 46 -6 80 -14 77 -19 -2 -5 -18 -6 -35 -2 -28 5 -99 -20
-107 -39 -2 -5 -9 -8 -16 -8 -16 0 -151 -112 -186 -154 -14 -17 -40 -46 -58
-66 -17 -19 -35 -43 -38 -52 -4 -15 -9 -16 -27 -6 -12 6 -49 12 -84 14 -53 2
-68 -1 -100 -23 -31 -21 -40 -23 -56 -13 -40 25 -108 19 -196 -17 -47 -19 -94
-44 -106 -57 -12 -13 -39 -26 -64 -30 -34 -5 -54 -17 -95 -60 -29 -29 -53 -59
-54 -67 -7 -57 -6 -76 1 -86 17 -23 -2 -53 -34 -53 -16 0 -29 3 -30 8 -1 4 -2
26 -4 50 -1 23 -5 46 -9 49 -10 10 -220 11 -246 1 -16 -6 -21 -14 -17 -28 3
-11 2 -22 -3 -25 -4 -2 -5 -15 -3 -28 4 -22 1 -25 -46 -31 -33 -4 -60 -15 -77
-31 -15 -14 -23 -25 -19 -25 4 0 2 -7 -5 -15 -11 -13 217 -15 2042 -15 1820 0
2055 2 2055 15 0 8 -4 15 -9 15 -4 0 -8 6 -8 13 0 23 -51 41 -130 47 l-75 5 0
47 c0 25 -4 50 -8 54 -11 11 -227 13 -248 2 -13 -6 -20 0 -29 22 -14 34 -80
97 -116 110 -14 6 -36 10 -49 10 -13 0 -30 9 -39 21 -16 23 -83 57 -161 81
-62 20 -80 20 -132 2 -40 -14 -42 -14 -67 10 -24 22 -34 24 -106 21 l-79 -3
-43 57 c-68 89 -176 189 -257 237 -64 38 -82 44 -113 40 -20 -4 -40 -2 -43 4
-3 6 4 10 17 11 95 3 283 45 458 101 183 59 454 203 561 298 51 45 67 51 43
15 -16 -24 -16 -25 4 -18 11 5 32 18 46 30 15 13 31 23 36 23 6 0 10 5 10 10
0 6 4 10 9 10 6 0 31 21 58 47 47 47 48 47 51 23 9 -71 106 -150 184 -150 48
0 121 34 137 64 10 18 30 27 92 41 52 11 103 32 147 58 76 45 184 152 203 200
7 18 18 39 25 47 12 15 14 20 14 40 0 6 6 10 14 10 11 0 47 37 94 95 7 9 35
72 38 85 10 44 18 97 16 104 -2 4 3 15 10 24 11 13 11 14 -2 7 -12 -7 -13 -6
-4 6 6 8 10 29 9 47 0 17 2 32 5 32 3 0 6 10 7 23 0 12 3 42 7 67 4 25 9 59
11 75 2 17 5 30 6 30 1 0 3 37 4 83 1 45 -1 82 -4 82 -4 0 -8 12 -9 26 -1 15
-7 33 -13 40 -6 8 -8 14 -4 14 4 0 3 6 -2 13 -8 11 -10 29 -3 42 1 3 4 10 5
15 1 6 4 12 5 15 1 3 3 8 4 13 2 4 8 27 15 52 7 25 15 52 16 60 2 8 4 16 5 18
2 1 3 5 4 10 1 4 7 30 14 57 7 28 15 64 17 80 2 17 4 30 5 30 1 0 4 11 5 25 8
52 17 126 19 150 1 14 5 30 8 35 7 13 7 587 0 600 -3 5 -7 25 -9 45 -4 48 -11
105 -13 105 -1 0 -3 11 -5 25 -10 84 -15 112 -19 119 -3 5 -8 25 -12 46 -3 20
-12 54 -19 76 -8 22 -15 43 -15 47 0 4 -6 25 -12 47 -6 22 -11 43 -10 48 1 4
-2 7 -6 7 -5 0 -9 6 -10 13 -1 23 -11 56 -22 76 -6 12 -7 21 -3 21 4 0 3 4 -3
8 -5 4 -18 30 -28 57 -11 28 -34 81 -53 119 l-34 70 29 22 c17 13 28 31 27 43
-1 21 -61 120 -79 133 -7 5 -7 8 -1 8 6 0 6 3 -1 8 -5 4 -37 43 -70 86 -90
120 -97 129 -126 158 -16 15 -28 30 -28 34 0 10 -257 263 -325 319 -33 28 -62
52 -65 55 -12 13 -140 108 -200 149 -175 118 -369 218 -605 312 -103 41 -407
118 -520 133 -17 2 -50 6 -75 10 -25 3 -65 9 -90 12 -48 6 -536 14 -542 9z
m1910 -1080 c-3 -3 -9 2 -12 12 -6 14 -5 15 5 6 7 -7 10 -15 7 -18z m232 -234
c25 -30 53 -63 63 -73 9 -10 17 -22 17 -27 0 -5 3 -11 8 -13 12 -5 72 -86 72
-97 0 -6 4 -11 8 -11 5 0 15 -12 23 -27 8 -16 16 -30 19 -33 3 -3 14 -18 24
-34 16 -24 23 -28 52 -23 32 5 35 4 54 -39 25 -55 38 -86 38 -98 0 -5 5 -12
12 -16 6 -4 12 -17 13 -28 1 -12 6 -22 11 -22 5 0 7 -2 4 -6 -3 -3 3 -27 13
-53 10 -27 15 -51 12 -55 -4 -3 -1 -6 5 -6 7 0 12 -12 12 -26 0 -14 4 -33 10
-43 5 -10 12 -30 15 -44 5 -25 12 -58 20 -97 2 -8 4 -15 5 -15 1 0 3 -11 4
-25 0 -14 4 -29 7 -35 3 -5 5 -25 5 -42 -1 -18 1 -33 4 -33 3 0 7 -21 8 -47 3
-61 6 -81 15 -89 3 -4 3 -12 0 -18 -9 -14 -11 -46 -3 -46 9 0 6 -353 -3 -367
-5 -8 -4 -13 3 -13 6 0 8 -4 5 -10 -3 -5 -8 -30 -11 -55 -2 -25 -7 -63 -10
-83 -13 -92 -16 -108 -19 -127 -2 -11 -4 -20 -5 -20 -2 0 -4 -10 -5 -22 -5
-51 -13 -55 -45 -23 l-31 31 8 92 c25 300 0 647 -68 924 -60 247 -127 416
-263 668 -30 56 -147 229 -157 233 -5 2 -9 8 -9 13 0 5 -28 43 -62 85 -35 42
-71 88 -82 103 -25 36 148 -141 204 -208z"/>
</g>
</svg>
